<svg width="33" height="32" viewBox="0 0 33 32" fill="none" xmlns="http://www.w3.org/2000/svg">
<g id="directions">
<mask id="mask0_8769_3245" style="mask-type:alpha" maskUnits="userSpaceOnUse" x="0" y="0" width="33" height="32">
<rect id="vector" x="0.5" width="32" height="32" fill="#D9D9D9"/>
</mask>
<g mask="url(#mask0_8769_3245)">
<path id="vector_2" d="M11.1666 20H13.8333V16H18.5V19.3333L23.1666 14.6666L18.5 9.99996V13.3333H12.5C12.1222 13.3333 11.8055 13.4611 11.55 13.7166C11.2944 13.9722 11.1666 14.2888 11.1666 14.6666V20ZM16.5 29.3333C16.1666 29.3333 15.8388 29.2666 15.5166 29.1333C15.1944 29 14.9 28.8 14.6333 28.5333L3.96663 17.8666C3.69996 17.6 3.49996 17.3055 3.36663 16.9833C3.23329 16.6611 3.16663 16.3333 3.16663 16C3.16663 15.6666 3.23329 15.3388 3.36663 15.0166C3.49996 14.6944 3.69996 14.4 3.96663 14.1333L14.6333 3.46663C14.9 3.19996 15.1944 2.99996 15.5166 2.86663C15.8388 2.73329 16.1666 2.66663 16.5 2.66663C16.8333 2.66663 17.1611 2.73329 17.4833 2.86663C17.8055 2.99996 18.1 3.19996 18.3666 3.46663L29.0333 14.1333C29.3 14.4 29.5 14.6944 29.6333 15.0166C29.7666 15.3388 29.8333 15.6666 29.8333 16C29.8333 16.3333 29.7666 16.6611 29.6333 16.9833C29.5 17.3055 29.3 17.6 29.0333 17.8666L18.3666 28.5333C18.1 28.8 17.8055 29 17.4833 29.1333C17.1611 29.2666 16.8333 29.3333 16.5 29.3333Z" fill="#1B89FF"/>
</g>
</g>
</svg>
