<svg width="14" height="14" viewBox="0 0 14 14" fill="none" xmlns="http://www.w3.org/2000/svg">
<g id="ping-pong" clip-path="url(#clip0_8711_3642)">
<path id="vector" d="M12.4022 1.59778C11.4009 0.629751 10.0817 0.058975 8.6906 -0.00810664C7.29949 -0.0751883 5.93147 0.366005 4.84166 1.23319C4.6052 0.853735 4.27551 0.541144 3.88401 0.325201C3.4925 0.109258 3.05223 -0.00284564 2.60513 -0.000429059C2.15803 0.00198752 1.719 0.118844 1.32985 0.339006C0.940707 0.559169 0.614417 0.875305 0.382065 1.2573C0.149714 1.63929 0.0190404 2.07441 0.00249454 2.52121C-0.0140514 2.96801 0.0840812 3.41161 0.287543 3.80974C0.491006 4.20787 0.79302 4.54727 1.16481 4.79561C1.53661 5.04396 1.9658 5.19296 2.4115 5.22844C2.22771 6.35482 2.39938 7.51047 2.90266 8.53478C2.93006 8.58728 2.94083 8.64687 2.93353 8.70564C2.92624 8.76441 2.90123 8.81957 2.86183 8.86378L1.16666 9.88461C0.735298 10.1117 0.392346 10.4767 0.192443 10.9213C-0.00746111 11.3659 -0.0528163 11.8646 0.0636027 12.338C0.180022 12.8114 0.451517 13.2322 0.834837 13.5334C1.21816 13.8346 1.69125 13.9989 2.17875 14C2.26784 14 2.35685 13.9948 2.44533 13.9843C2.76951 13.9465 3.08093 13.8359 3.35624 13.6606C3.63154 13.4853 3.86357 13.25 4.03491 12.9722L5.24125 11.1481C5.28475 11.1055 5.34048 11.0776 5.40062 11.0683C5.46077 11.059 5.52233 11.0688 5.57666 11.0962C6.66558 11.6234 7.89522 11.7863 9.08384 11.5607C10.2725 11.3352 11.357 10.7332 12.1771 9.84378C13.2934 8.74406 13.9458 7.25829 14 5.69219C14.0302 4.93646 13.9038 4.18266 13.6288 3.47807C13.3539 2.77349 12.9363 2.13333 12.4022 1.59778ZM1.16666 2.62503C1.16666 2.33659 1.25219 2.05464 1.41244 1.81482C1.57268 1.575 1.80044 1.38808 2.06692 1.2777C2.33339 1.16732 2.62661 1.13844 2.9095 1.19471C3.19239 1.25098 3.45224 1.38988 3.65619 1.59383C3.86014 1.79778 3.99904 2.05763 4.05531 2.34052C4.11158 2.62341 4.0827 2.91663 3.97232 3.18311C3.86194 3.44958 3.67502 3.67734 3.4352 3.83759C3.19538 3.99783 2.91343 4.08336 2.625 4.08336C2.23822 4.08336 1.86729 3.92971 1.5938 3.65622C1.32031 3.38273 1.16666 3.0118 1.16666 2.62503ZM6.09 10.0485C5.79777 9.90386 5.46541 9.86156 5.14626 9.92842C4.82711 9.99527 4.53968 10.1674 4.33008 10.4172C4.31608 10.4341 4.30325 10.4516 4.291 10.4697L3.05025 12.3469C2.92795 12.5468 2.74029 12.6983 2.51906 12.7758C2.29783 12.8532 2.05664 12.8518 1.83634 12.7717C1.61605 12.6917 1.43019 12.5379 1.31027 12.3366C1.19035 12.1352 1.14374 11.8985 1.17833 11.6667C1.20332 11.5034 1.26733 11.3486 1.36492 11.2154C1.46251 11.0822 1.5908 10.9744 1.73891 10.9014L3.51283 9.83328C3.53871 9.81779 3.56329 9.80023 3.58633 9.78078C3.83545 9.57078 4.00674 9.28312 4.07265 8.96403C4.13856 8.64494 4.09527 8.31296 3.94975 8.02144C3.56881 7.25261 3.42795 6.38697 3.5455 5.53703L8.46475 10.4563C7.65042 10.5515 6.82592 10.4099 6.09 10.0485ZM11.3522 9.01894C10.8939 9.47829 10.3533 9.84735 9.75858 10.1069C9.75333 10.101 9.75158 10.0934 9.74575 10.0876L4.29333 4.63461C4.5911 4.39091 4.83129 4.08436 4.99668 3.73694C5.16207 3.38951 5.24858 3.00981 5.25 2.62503C5.25 2.55561 5.23483 2.49028 5.22958 2.42261C6.09322 1.62323 7.22669 1.17918 8.4035 1.17918C9.5803 1.17918 10.7138 1.62323 11.5774 2.42261C11.9986 2.84616 12.3276 3.35228 12.5438 3.90914C12.7599 4.466 12.8585 5.06155 12.8333 5.65836C12.7876 6.92675 12.2576 8.12941 11.3522 9.01894Z" fill="#666666"/>
</g>
<defs>
<clipPath id="clip0_8711_3642">
<rect width="14" height="14" fill="white"/>
</clipPath>
</defs>
</svg>
