<svg width="14" height="14" viewBox="0 0 14 14" fill="none" xmlns="http://www.w3.org/2000/svg">
<g id="shuttlecock" clip-path="url(#clip0_8711_3637)">
<path id="vector" d="M13.5333 5.87589C13.3128 5.65594 13.0416 5.49366 12.7435 5.40339C12.8543 5.0683 12.8699 4.70899 12.7884 4.36558C12.7069 4.02216 12.5316 3.70814 12.2821 3.45855C11.9506 3.14121 11.5129 2.95863 11.0542 2.94639C11.0373 2.48066 10.8432 2.03895 10.5117 1.71147C10.2618 1.47189 9.95132 1.30502 9.61364 1.22885C9.27597 1.15268 8.92391 1.1701 8.59541 1.27922C8.50833 0.969066 8.34278 0.686591 8.11474 0.459054C7.95876 0.305292 7.77285 0.185206 7.56856 0.106236C7.36426 0.0272669 7.14592 -0.0089024 6.92707 -2.97896e-05C6.70598 0.0092077 6.48914 0.0637264 6.28997 0.160152C6.09079 0.256577 5.91353 0.392856 5.76916 0.560554C3.86481 2.87274 2.50601 5.58435 1.79374 8.49389L0.777574 9.5083C0.285056 10.0008 0.00836182 10.6688 0.00836182 11.3653C0.00836182 12.0619 0.285056 12.7299 0.777574 13.2224C1.27009 13.7149 1.93809 13.9916 2.63462 13.9916C3.33114 13.9916 3.99914 13.7149 4.49166 13.2224L5.50782 12.2062C8.41736 11.494 11.129 10.1352 13.4412 8.2308C13.609 8.08673 13.7453 7.90959 13.8415 7.71045C13.9378 7.51131 13.9919 7.29445 14.0006 7.07344C14.0092 6.85242 13.9722 6.632 13.8918 6.42595C13.8114 6.21989 13.6894 6.03264 13.5333 5.87589ZM11.487 4.31664C11.6115 4.44728 11.68 4.62142 11.678 4.80189C11.6759 4.98236 11.6034 5.15488 11.4759 5.28264C11.3464 5.41155 10.9182 5.7913 10.8657 5.8438L10.8617 5.84789C9.78074 6.78647 8.20574 7.94205 7.51449 8.44139L6.94924 7.87614L10.5076 4.3178C10.6392 4.19133 10.8145 4.1206 10.997 4.12038C11.1796 4.12016 11.3551 4.19048 11.487 4.31664ZM8.18241 3.07939C8.19816 3.06247 8.67532 2.5678 8.70741 2.53572C8.83899 2.40979 9.0141 2.3395 9.19624 2.3395C9.37838 2.3395 9.55349 2.40979 9.68507 2.53572C9.7489 2.5976 9.79964 2.67168 9.83429 2.75354C9.86894 2.83541 9.8868 2.9234 9.8868 3.0123C9.8868 3.1012 9.86894 3.1892 9.83429 3.27106C9.79964 3.35293 9.7489 3.427 9.68507 3.48889L9.67399 3.49997L6.12499 7.05014L5.54866 6.47497C6.05441 5.77497 7.23682 4.16089 8.18241 3.07939ZM6.65466 1.32005C6.69409 1.27415 6.74254 1.23685 6.79701 1.21048C6.85147 1.18411 6.91078 1.16923 6.97124 1.16677C7.0317 1.16431 7.09203 1.17432 7.14845 1.19617C7.20488 1.21803 7.25621 1.25126 7.29924 1.2938C7.42127 1.42145 7.49377 1.58844 7.50372 1.76476C7.51366 1.94108 7.4604 2.11516 7.35349 2.25572C7.34007 2.27147 5.26341 4.88072 4.71274 5.63905L4.21924 5.14555C4.85914 3.76876 5.67802 2.48248 6.65466 1.32005ZM3.66507 12.3976C3.38719 12.6627 3.01784 12.8107 2.63374 12.8107C2.24964 12.8107 1.88029 12.6627 1.60241 12.3976C1.46695 12.2621 1.35949 12.1013 1.28618 11.9244C1.21287 11.7474 1.17514 11.5578 1.17514 11.3662C1.17514 11.1747 1.21287 10.985 1.28618 10.8081C1.35949 10.6311 1.46695 10.4703 1.60241 10.3349L2.34791 9.58939L4.41057 11.6521L3.66507 12.3976ZM5.43199 11.025L2.97499 8.56797C3.17222 7.79413 3.42029 7.03415 3.71757 6.29297L7.70524 10.2806C6.96467 10.5784 6.20528 10.8271 5.43199 11.025ZM12.8333 7.02505C12.8314 7.08617 12.8168 7.14621 12.7904 7.20135C12.764 7.25649 12.7263 7.30552 12.6799 7.3453C11.5181 8.32184 10.2324 9.14072 8.85616 9.78072L8.35157 9.27614C9.15132 8.6963 10.7117 7.54072 11.774 6.59864C11.9194 6.50715 12.0916 6.46798 12.2623 6.4876C12.4329 6.50722 12.5918 6.58446 12.7126 6.70655C12.7535 6.74847 12.7854 6.7984 12.8062 6.8532C12.827 6.90801 12.8362 6.96651 12.8333 7.02505Z" fill="#666666"/>
</g>
<defs>
<clipPath id="clip0_8711_3637">
<rect width="14" height="14" fill="white"/>
</clipPath>
</defs>
</svg>
