<svg width="14" height="14" viewBox="0 0 14 14" fill="none" xmlns="http://www.w3.org/2000/svg">
<g id="sports_cricket">
<mask id="mask0_8711_3627" style="mask-type:alpha" maskUnits="userSpaceOnUse" x="0" y="0" width="14" height="14">
<rect id="vector" width="14" height="14" fill="#D9D9D9"/>
</mask>
<g mask="url(#mask0_8711_3627)">
<path id="vector_2" d="M8.75 8.28329L7.11667 9.91663C7 10.0333 6.86389 10.0916 6.70834 10.0916C6.55278 10.0916 6.41667 10.0333 6.3 9.91663L1.34167 4.95829C1.22501 4.84163 1.16667 4.71038 1.16667 4.56454C1.16667 4.41871 1.22501 4.28746 1.34167 4.17079L2.97501 2.53746C3.09167 2.42079 3.23264 2.36246 3.39792 2.36246C3.5632 2.36246 3.70417 2.42079 3.82084 2.53746L8.75 7.46663C8.86667 7.58329 8.925 7.7194 8.925 7.87496C8.925 8.03051 8.86667 8.16663 8.75 8.28329ZM6.70834 8.69163L7.52501 7.87496L3.38334 3.73329L2.56667 4.54996L6.70834 8.69163ZM10.85 12.8333L8.37084 10.3541L9.1875 9.53746L11.6667 12.0166L10.85 12.8333ZM10.7917 5.24996C10.2278 5.24996 9.74653 5.05065 9.34792 4.65204C8.94931 4.25343 8.75 3.77218 8.75 3.20829C8.75 2.6444 8.94931 2.16315 9.34792 1.76454C9.74653 1.36593 10.2278 1.16663 10.7917 1.16663C11.3556 1.16663 11.8368 1.36593 12.2354 1.76454C12.634 2.16315 12.8333 2.6444 12.8333 3.20829C12.8333 3.77218 12.634 4.25343 12.2354 4.65204C11.8368 5.05065 11.3556 5.24996 10.7917 5.24996ZM10.7917 4.08329C11.0347 4.08329 11.2413 3.99822 11.4115 3.82808C11.5816 3.65795 11.6667 3.45135 11.6667 3.20829C11.6667 2.96524 11.5816 2.75864 11.4115 2.5885C11.2413 2.41836 11.0347 2.33329 10.7917 2.33329C10.5486 2.33329 10.342 2.41836 10.1719 2.5885C10.0017 2.75864 9.91667 2.96524 9.91667 3.20829C9.91667 3.45135 10.0017 3.65795 10.1719 3.82808C10.342 3.99822 10.5486 4.08329 10.7917 4.08329Z" fill="#666666"/>
</g>
</g>
</svg>
