<svg width="14" height="14" viewBox="0 0 14 14" fill="none" xmlns="http://www.w3.org/2000/svg">
<g id="sports_soccer">
<mask id="mask0_8711_3632" style="mask-type:alpha" maskUnits="userSpaceOnUse" x="0" y="0" width="14" height="14">
<rect id="vector" width="14" height="14" fill="#D9D9D9"/>
</mask>
<g mask="url(#mask0_8711_3632)">
<path id="vector_2" d="M7 12.8333C6.19306 12.8333 5.43473 12.6802 4.725 12.3739C4.01528 12.0677 3.39792 11.652 2.87292 11.127C2.34792 10.602 1.9323 9.98468 1.62605 9.27496C1.3198 8.56524 1.16667 7.8069 1.16667 6.99996C1.16667 6.19301 1.3198 5.43468 1.62605 4.72496C1.9323 4.01524 2.34792 3.39788 2.87292 2.87288C3.39792 2.34788 4.01528 1.93225 4.725 1.626C5.43473 1.31975 6.19306 1.16663 7 1.16663C7.80695 1.16663 8.56528 1.31975 9.27501 1.626C9.98473 1.93225 10.6021 2.34788 11.1271 2.87288C11.6521 3.39788 12.0677 4.01524 12.374 4.72496C12.6802 5.43468 12.8333 6.19301 12.8333 6.99996C12.8333 7.8069 12.6802 8.56524 12.374 9.27496C12.0677 9.98468 11.6521 10.602 11.1271 11.127C10.6021 11.652 9.98473 12.0677 9.27501 12.3739C8.56528 12.6802 7.80695 12.8333 7 12.8333ZM9.91667 5.54163L10.7042 5.27913L10.9375 4.49163C10.6264 4.02496 10.2521 3.62392 9.81459 3.2885C9.37709 2.95308 8.89584 2.70274 8.37084 2.53746L7.58334 3.09163V3.90829L9.91667 5.54163ZM4.08334 5.54163L6.41667 3.90829V3.09163L5.62917 2.53746C5.10417 2.70274 4.62292 2.95308 4.18542 3.2885C3.74792 3.62392 3.37362 4.02496 3.06251 4.49163L3.29584 5.27913L4.08334 5.54163ZM3.47084 10.0333L4.14167 9.97496L4.57917 9.18746L3.73334 6.64996L2.91667 6.35829L2.33334 6.79579C2.33334 7.42774 2.42084 8.00378 2.59584 8.52392C2.77084 9.04406 3.06251 9.54718 3.47084 10.0333ZM7 11.6666C7.25278 11.6666 7.5007 11.6472 7.74376 11.6083C7.98681 11.5694 8.225 11.5111 8.45834 11.4333L8.86667 10.5583L8.4875 9.91663H5.51251L5.13334 10.5583L5.54167 11.4333C5.775 11.5111 6.0132 11.5694 6.25626 11.6083C6.49931 11.6472 6.74723 11.6666 7 11.6666ZM5.6875 8.74996H8.3125L9.12917 6.41663L7 4.92913L4.90001 6.41663L5.6875 8.74996ZM10.5292 10.0333C10.9375 9.54718 11.2292 9.04406 11.4042 8.52392C11.5792 8.00378 11.6667 7.42774 11.6667 6.79579L11.0833 6.38746L10.2667 6.64996L9.42084 9.18746L9.85834 9.97496L10.5292 10.0333Z" fill="#666666"/>
</g>
</g>
</svg>
